<?xml version="1.0" standalone="no"?>
<!DOCTYPE svg PUBLIC "-//W3C//DTD SVG 20010904//EN"
 "http://www.w3.org/TR/2001/REC-SVG-20010904/DTD/svg10.dtd">
<svg version="1.0" xmlns="http://www.w3.org/2000/svg"
 width="477.000000pt" height="477.000000pt" viewBox="0 0 477.000000 477.000000"
 preserveAspectRatio="xMidYMid meet">
<metadata>
Created by potrace 1.11, written by Peter Selinger 2001-2013
</metadata>
<g transform="translate(0.000000,477.000000) scale(0.100000,-0.100000)"
fill="#000000" stroke="none">
<path d="M1640 2406 l0 -506 188 0 c103 0 219 5 257 10 95 14 172 54 210 108
27 39 30 52 33 142 4 88 2 104 -21 153 -27 59 -66 93 -130 112 l-42 13 30 11
c54 20 76 35 94 61 71 101 47 273 -47 335 -74 49 -120 57 -354 62 l-218 6 0
-507z m382 334 c53 -15 78 -51 78 -112 0 -41 -5 -54 -29 -79 -29 -28 -32 -29
-135 -29 l-106 0 0 108 c0 60 3 112 7 115 10 11 144 8 185 -3z m45 -404 c43
-22 63 -63 63 -131 0 -113 -38 -140 -195 -140 l-100 0 -3 134 c-1 74 0 141 3
149 8 21 187 12 232 -12z"/>
<path d="M2620 2815 l0 -85 120 0 120 0 0 -275 c0 -227 -3 -281 -16 -314 -23
-57 -56 -76 -134 -76 -75 0 -152 31 -213 85 l-37 32 0 -117 0 -116 43 -19
c163 -72 389 -58 476 29 73 73 75 85 79 539 l3 402 -220 0 -221 0 0 -85z"/>
</g>
</svg>
